<svg xmlns="http://www.w3.org/2000/svg" xmlns:xlink="http://www.w3.org/1999/xlink" width="19.997" height="19.994" viewBox="0 0 19.997 19.994">
  <defs>
    <linearGradient id="linear-gradient" x1="0.5" x2="0.5" y2="1" gradientUnits="objectBoundingBox">
      <stop offset="0" stop-color="#2f1484"/>
      <stop offset="0.494" stop-color="#321257"/>
      <stop offset="1" stop-color="#02112e"/>
    </linearGradient>
  </defs>
  <path id="git-logo" d="M56.607,64.12l-8.731-8.729a1.3,1.3,0,0,1,0-1.824l5.987-5.982,2.26,2.272a1.529,1.529,0,0,0,.83,2.008v5.49a1.577,1.577,0,0,0-.5.338,1.544,1.544,0,1,0,1.767-.292V51.963l2.074,2.063a1.539,1.539,0,1,0,.92-.868L59,50.94a1.531,1.531,0,0,0-1.939-1.949l-2.3-2.3,1.809-1.811a1.292,1.292,0,0,1,1.823,0l8.731,8.729a1.285,1.285,0,0,1,0,1.822l-8.69,8.689a1.287,1.287,0,0,1-1.821,0Z" transform="translate(-47.501 -44.503)" fill="url(#linear-gradient)"/>
</svg>
