<svg xmlns="http://www.w3.org/2000/svg" xmlns:xlink="http://www.w3.org/1999/xlink" width="18" height="18" viewBox="0 0 18 18">
  <defs>
    <linearGradient id="linear-gradient" x1="0.5" x2="0.5" y2="1" gradientUnits="objectBoundingBox">
      <stop offset="0" stop-color="#2f1484"/>
      <stop offset="0.494" stop-color="#541672"/>
      <stop offset="1" stop-color="#490551"/>
    </linearGradient>
  </defs>
  <path id="javascript-logo" d="M49,64V46H67V64Zm4.73-2.924a2.647,2.647,0,0,0,.994,1.138,3.3,3.3,0,0,0,2.4.3,2.1,2.1,0,0,0,1.357-1.058,5.189,5.189,0,0,0,.3-2.509c.008-1.541,0-3.083,0-4.635l0-.042H57.1c0,1.453-.007,2.9-.007,4.354a7.071,7.071,0,0,1-.1,2.033c-.247.517-.886.451-1.174.359a1.441,1.441,0,0,1-.623-.641.671.671,0,0,0-.1-.147Zm5.945-.259a3.027,3.027,0,0,0,.607.833c1.305,1.316,4.568,1.249,5.153-.754a2.55,2.55,0,0,0,.056-1.237l.034.049c-.131-.821-.666-1.511-2.253-2.155-.552-.259-1.165-.438-1.349-.854a.892.892,0,0,1-.033-.529.861.861,0,0,1,1.137-.5,1.213,1.213,0,0,1,.732.676c.775-.507.775-.507,1.317-.844a3.281,3.281,0,0,0-.439-.586,2.528,2.528,0,0,0-2.126-.775l-.528.068a2.424,2.424,0,0,0-1.283.753,2.355,2.355,0,0,0,.428,3.354c1.022.765,2.521.933,2.712,1.653.18.878-.652,1.158-1.475,1.057a1.979,1.979,0,0,1-1.316-1Z" transform="translate(-49 -46)" fill="url(#linear-gradient)"/>
</svg>
