<svg xmlns="http://www.w3.org/2000/svg" xmlns:xlink="http://www.w3.org/1999/xlink" width="18" height="18" viewBox="0 0 18 18">
  <defs>
    <linearGradient id="linear-gradient" x1="0.5" y1="0.181" x2="0.5" y2="1.181" gradientUnits="objectBoundingBox">
      <stop offset="0" stop-color="#2f1484"/>
      <stop offset="0.489" stop-color="#321257"/>
      <stop offset="1" stop-color="#02112e"/>
    </linearGradient>
  </defs>
  <path id="javascript-logo" d="M3,3H21V21H3ZM19.525,16.707c-.131-.821-.666-1.511-2.252-2.155-.552-.259-1.165-.438-1.349-.854a.889.889,0,0,1-.034-.529.862.862,0,0,1,1.137-.495,1.216,1.216,0,0,1,.732.676c.775-.507.775-.507,1.316-.844a3.269,3.269,0,0,0-.439-.586,2.524,2.524,0,0,0-2.126-.775l-.528.067a2.425,2.425,0,0,0-1.283.754,2.354,2.354,0,0,0,.427,3.354c1.023.765,2.521.933,2.712,1.653.18.878-.652,1.159-1.475,1.058a1.978,1.978,0,0,1-1.316-1l-1.372.788a3.037,3.037,0,0,0,.607.832c1.305,1.316,4.568,1.249,5.153-.754a2.549,2.549,0,0,0,.056-1.237l.034.049Zm-6.737-5.434H11.1c0,1.453-.007,2.9-.007,4.354a7.084,7.084,0,0,1-.1,2.033c-.247.517-.886.451-1.175.359a1.442,1.442,0,0,1-.623-.641.63.63,0,0,0-.1-.146l-1.368.844a2.644,2.644,0,0,0,.994,1.137,3.3,3.3,0,0,0,2.4.305,2.1,2.1,0,0,0,1.358-1.059,5.187,5.187,0,0,0,.3-2.509c.008-1.541,0-3.083,0-4.635l0-.042Z" transform="translate(-3 -3)" fill="url(#linear-gradient)"/>
</svg>
