<svg xmlns="http://www.w3.org/2000/svg" xmlns:xlink="http://www.w3.org/1999/xlink" width="20.002" height="19.882" viewBox="0 0 20.002 19.882">
  <defs>
    <linearGradient id="linear-gradient" x1="0.5" x2="0.5" y2="1" gradientUnits="objectBoundingBox">
      <stop offset="0" stop-color="#2f1484"/>
      <stop offset="0.494" stop-color="#541672"/>
      <stop offset="1" stop-color="#490551"/>
    </linearGradient>
  </defs>
  <path id="netlify-logo" d="M57.281,64.39a2.677,2.677,0,0,1-.87-.709L51.72,59l1.22-1.9a1.259,1.259,0,0,0,.86,0l.121-.049,4.69,6.8a1.855,1.855,0,0,1-.7.54.993.993,0,0,1-.63,0ZM54.42,56.57v-.06l5.22,1.13a.9.9,0,0,0,.53.72c-.07.391-.63,3.8-.78,4.721l-.419.43Zm6.511,1.66a.889.889,0,0,0,.36-.27l2.64.55L60.29,62.17Zm-10.84-.72,2.18-.84a.689.689,0,0,0,.07.1c.01,0,0,.02,0,.02l-1.17,1.82Zm11.45-.26h-.059a.88.88,0,0,0-.34-.62l.55-3.4V53.17a.922.922,0,0,0,.61-.34.069.069,0,0,1,.059,0l5.061,2.01a4.215,4.215,0,0,1-.651.741l-2.28,2.28Zm-13.28-1.52a6.883,6.883,0,0,1-.51-.54l4.14.86c.06,0,.06-.05.06,0s-.06.049-.06.049v-.01l-2.27,1Zm6.32.2c-.022-.091-.049-.181-.08-.27l6.45-2.65.09.08-.54,3.37v.05a.908.908,0,0,0-.82.48ZM47.5,54.51a.746.746,0,0,1,.05-.31c.07-.239.28-.45.7-.869L50,51.58c.8,1.17,1.6,2.33,2.37,3.53v.06a1.073,1.073,0,0,0-.2.27v.07Zm6.73.5,2.36-3.62a.062.062,0,0,1,.06-.05h.17a1.049,1.049,0,0,0,.88-.47h.049l2.86,1.27a.611.611,0,0,0,0,.14v.08c0,.02-.05,0-.05,0l-6.33,2.7Zm-.97-.21h-.27l.021-.02L50.5,51.12l2.3-2.34,1.7.73,1.16.6a1,1,0,0,0,.27.949v.06l-2.38,3.68A1.426,1.426,0,0,0,53.26,54.8Zm9.37-2.61.1.01,2.07-.87,2,2c.419.419.63.63.7.869v.11Zm-.66-.74-.03-.05.4-2.47L64.23,50.8l-2,.841A.832.832,0,0,0,61.97,51.45Zm-4.11-1.23a1.3,1.3,0,0,0-.159-.47.169.169,0,0,1-.021-.08l1.95-3.3,2,2-.48,3a1.118,1.118,0,0,0-.29.139Zm-1.789-.72c-.281-.13-2.47-1.05-2.78-1.19l3-3c.42-.419.63-.63.87-.7a.993.993,0,0,1,.63,0c.239.069.45.28.869.7l.661.661-2.16,3.34h-.05a1.1,1.1,0,0,0-1,.2Z" transform="translate(-47.499 -44.559)" fill="url(#linear-gradient)"/>
</svg>
