<svg xmlns="http://www.w3.org/2000/svg" xmlns:xlink="http://www.w3.org/1999/xlink" width="20.002" height="19.882" viewBox="0 0 20.002 19.882">
  <defs>
    <linearGradient id="linear-gradient" x1="0.5" x2="0.5" y2="1" gradientUnits="objectBoundingBox">
      <stop offset="0" stop-color="#2f1484"/>
      <stop offset="0.494" stop-color="#321257"/>
      <stop offset="1" stop-color="#02112e"/>
    </linearGradient>
  </defs>
  <path id="netlify-logo" d="M56.781,64.831a2.668,2.668,0,0,1-.87-.71l-4.69-4.68,1.22-1.9a1.27,1.27,0,0,0,.86,0l.121-.049,4.69,6.8a1.855,1.855,0,0,1-.7.54.993.993,0,0,1-.63,0Zm-2.86-7.82v-.059l5.22,1.129a.9.9,0,0,0,.53.72c-.07.391-.63,3.8-.78,4.721l-.419.43Zm6.511,1.66a.889.889,0,0,0,.36-.27l2.64.55-3.641,3.66Zm-10.84-.72,2.18-.84a.689.689,0,0,0,.07.1c.01,0,0,.02,0,.02l-1.17,1.82Zm11.45-.26h-.059a.88.88,0,0,0-.34-.62l.55-3.4v-.059a.922.922,0,0,0,.61-.34.069.069,0,0,1,.059,0l5.061,2.01a4.177,4.177,0,0,1-.651.74L63.991,58.3Zm-13.28-1.52a6.883,6.883,0,0,1-.51-.54l4.14.86c.06,0,.06-.05.06,0s-.06.05-.06.05v-.01l-2.27,1Zm6.32.2c-.022-.091-.049-.181-.08-.27l6.45-2.65.09.08L60,56.9v.05a.908.908,0,0,0-.82.48ZM47,54.951a.747.747,0,0,1,.05-.311c.07-.24.28-.45.7-.87l1.75-1.75c.8,1.17,1.6,2.33,2.37,3.53v.06a1.073,1.073,0,0,0-.2.27v.07Zm6.73.5,2.36-3.62a.062.062,0,0,1,.06-.05h.17a1.049,1.049,0,0,0,.88-.47h.049l2.86,1.27a.611.611,0,0,0,0,.14v.08c0,.02-.05,0-.05,0l-6.33,2.7Zm-.97-.21h-.27l.021-.02L50,51.561l2.3-2.34,1.7.73,1.16.6a1,1,0,0,0,.27.95v.06l-2.38,3.68A1.427,1.427,0,0,0,52.761,55.241Zm9.37-2.61.1.01,2.07-.87,2,2c.419.42.63.63.7.87v.11Zm-.66-.74-.03-.05.4-2.47,1.89,1.869-2,.841A.818.818,0,0,0,61.471,51.891Zm-4.11-1.23a1.3,1.3,0,0,0-.159-.47.169.169,0,0,1-.021-.08l1.95-3.3,2,2-.48,3a1.118,1.118,0,0,0-.29.139Zm-1.789-.72c-.281-.131-2.47-1.05-2.78-1.19l3-3c.42-.419.63-.63.87-.7a.993.993,0,0,1,.63,0c.239.069.45.28.869.7l.661.661-2.16,3.34h-.05a1.1,1.1,0,0,0-1,.2Z" transform="translate(-47 -45)" fill="url(#linear-gradient)"/>
</svg>
