<svg xmlns="http://www.w3.org/2000/svg" xmlns:xlink="http://www.w3.org/1999/xlink" width="20.019" height="17.811" viewBox="0 0 20.019 17.811">
  <defs>
    <linearGradient id="linear-gradient" x1="0.5" x2="0.5" y2="1" gradientUnits="objectBoundingBox">
      <stop offset="0" stop-color="#2f1484"/>
      <stop offset="0.494" stop-color="#541672"/>
      <stop offset="1" stop-color="#490551"/>
    </linearGradient>
  </defs>
  <path id="react-logo" d="M52.5,63.149c-1.2-.691-1.487-2.616-.8-5.309-2.68-.752-4.207-1.961-4.207-3.343S49.019,51.9,51.7,51.152c-.69-2.695-.406-4.618.8-5.308,1.176-.681,3.033.051,5,1.965,1.97-1.913,3.826-2.645,5-1.965,1.2.691,1.487,2.615.8,5.308,2.682.752,4.208,1.96,4.208,3.344s-1.527,2.59-4.208,3.343c.686,2.693.4,4.618-.8,5.309a1.976,1.976,0,0,1-.974.257H61.5c-1.113,0-2.524-.788-4-2.224-1.475,1.437-2.885,2.224-4,2.224h-.026A1.987,1.987,0,0,1,52.5,63.149Zm5.587-2.562c1.3,1.266,2.534,1.985,3.416,1.985a1.164,1.164,0,0,0,.589-.145c.829-.478.976-2.142.4-4.384a20.845,20.845,0,0,1-2.7.418l0,0h0A20.744,20.744,0,0,1,58.083,60.586Zm-5.171,1.841c.824.47,2.371-.255,4.005-1.841a21.272,21.272,0,0,1-1.713-2.122h0v0a20.828,20.828,0,0,1-2.695-.418C51.938,60.286,52.085,61.95,52.913,62.428ZM57.5,59.985q.637-.694,1.208-1.446c-.406.019-.809.03-1.206.03s-.8-.01-1.209-.03Q56.86,59.289,57.5,59.985Zm-1.832-8.656A23.645,23.645,0,0,0,53.834,54.5a24.753,24.753,0,0,0,1.832,3.168,24.207,24.207,0,0,0,3.667,0A24.586,24.586,0,0,0,61.166,54.5a24,24,0,0,0-1.832-3.168q-.915-.07-1.833-.07T55.667,51.329Zm4.738,6.23q.934-.115,1.855-.319-.282-.9-.649-1.764Q61.059,56.546,60.405,57.559Zm-7.666-.318c.587.131,1.207.238,1.854.316q-.325-.5-.627-1.024t-.577-1.058C53.144,56.052,52.926,56.642,52.739,57.241ZM62.087,54.5v0a20.921,20.921,0,0,1,.986,2.539c2.229-.626,3.6-1.586,3.6-2.54s-1.368-1.913-3.6-2.542A20.775,20.775,0,0,1,62.087,54.5Zm-13.76,0c0,.954,1.368,1.913,3.6,2.54a21.017,21.017,0,0,1,.985-2.54,20.429,20.429,0,0,1-.985-2.542C49.7,52.583,48.327,53.541,48.327,54.5Zm13.283-.978c.245-.578.462-1.168.65-1.767q-.921-.205-1.858-.321Q61.055,52.446,61.61,53.519Zm-8.871-1.766q.282.9.65,1.766.277-.536.577-1.058t.629-1.028Q53.661,51.548,52.739,51.753Zm5.344-3.346a20.588,20.588,0,0,1,1.71,2.123,20.756,20.756,0,0,1,2.7.418c.571-2.243.425-3.9-.4-4.381a1.156,1.156,0,0,0-.589-.145C60.629,46.421,59.381,47.142,58.083,48.407Zm-5.171-1.84c-.828.477-.975,2.138-.4,4.38a20.913,20.913,0,0,1,2.7-.418,21.189,21.189,0,0,1,1.714-2.123c-1.3-1.266-2.534-1.985-3.416-1.985A1.16,1.16,0,0,0,52.913,46.567Zm5.8,3.885Q58.14,49.7,57.5,49.009q-.637.693-1.206,1.444.6-.028,1.2-.029T58.708,50.452ZM55.715,54.5A1.785,1.785,0,1,1,57.5,56.286,1.785,1.785,0,0,1,55.715,54.5Z" transform="translate(-47.49 -45.595)" fill="url(#linear-gradient)"/>
</svg>
