<svg xmlns="http://www.w3.org/2000/svg" xmlns:xlink="http://www.w3.org/1999/xlink" width="20.019" height="17.812" viewBox="0 0 20.019 17.812">
  <defs>
    <linearGradient id="linear-gradient" x1="0.5" x2="0.5" y2="1" gradientUnits="objectBoundingBox">
      <stop offset="0" stop-color="#2f1484"/>
      <stop offset="0.494" stop-color="#321257"/>
      <stop offset="1" stop-color="#02112e"/>
    </linearGradient>
  </defs>
  <path id="react-logo" d="M61.008,63.811c-1.113,0-2.524-.787-4-2.224-1.476,1.437-2.885,2.224-4,2.224a1.988,1.988,0,0,1-1.005-.257c-1.2-.69-1.487-2.615-.8-5.308C48.527,57.493,47,56.284,47,54.9s1.528-2.591,4.208-3.344c-.689-2.695-.406-4.618.8-5.309,1.176-.68,3.032.052,5,1.966,1.969-1.913,3.826-2.645,5-1.966,1.2.692,1.487,2.615.8,5.309,2.682.752,4.208,1.96,4.208,3.344s-1.527,2.591-4.208,3.343c.686,2.692.4,4.618-.8,5.308a1.969,1.969,0,0,1-.975.258Zm-3.416-2.82c1.3,1.266,2.534,1.985,3.416,1.985a1.164,1.164,0,0,0,.589-.145c.829-.478.976-2.142.4-4.384a20.694,20.694,0,0,1-2.7.419l0,0h0A20.67,20.67,0,0,1,57.593,60.991Zm-5.17,1.841c.824.47,2.371-.255,4-1.841a20.946,20.946,0,0,1-1.713-2.122h0a20.653,20.653,0,0,1-2.695-.419C51.448,60.691,51.594,62.355,52.422,62.833Zm4.585-2.442q.637-.694,1.207-1.446c-.405.019-.808.029-1.205.029s-.8-.009-1.209-.029Q56.368,59.7,57.008,60.391Zm-1.832-8.657A23.644,23.644,0,0,0,53.344,54.9a24.752,24.752,0,0,0,1.832,3.168,24.206,24.206,0,0,0,3.667,0A24.585,24.585,0,0,0,60.675,54.9a24,24,0,0,0-1.832-3.168q-.915-.07-1.833-.07T55.176,51.734Zm4.739,6.231q.934-.115,1.855-.319-.282-.9-.649-1.764Q60.569,56.952,59.915,57.965Zm-7.666-.318c.587.131,1.207.238,1.854.316q-.325-.5-.627-1.025T52.9,55.879Q52.53,56.747,52.249,57.647ZM61.6,54.9h0a20.91,20.91,0,0,1,.986,2.538c2.229-.626,3.6-1.586,3.6-2.54s-1.368-1.913-3.6-2.542A20.731,20.731,0,0,1,61.6,54.9Zm-13.76,0c0,.954,1.368,1.913,3.6,2.54a21.018,21.018,0,0,1,.985-2.54,20.43,20.43,0,0,1-.985-2.542C49.206,52.988,47.837,53.946,47.837,54.9Zm13.283-.977c.245-.578.462-1.168.65-1.767-.614-.137-1.235-.245-1.859-.321Q60.565,52.852,61.12,53.924Zm-8.871-1.766q.282.9.65,1.765.275-.535.577-1.058t.629-1.027Q53.169,51.953,52.249,52.159Zm5.344-3.347a20.589,20.589,0,0,1,1.71,2.123,20.756,20.756,0,0,1,2.7.418c.571-2.243.425-3.9-.4-4.381a1.16,1.16,0,0,0-.589-.144C60.138,46.827,58.89,47.547,57.593,48.812Zm-5.17-1.84c-.828.477-.975,2.138-.4,4.38a20.914,20.914,0,0,1,2.7-.418,21.19,21.19,0,0,1,1.714-2.123c-1.3-1.266-2.533-1.985-3.416-1.985A1.16,1.16,0,0,0,52.422,46.972Zm5.8,3.886q-.568-.751-1.207-1.444-.637.693-1.206,1.444c.4-.019.8-.029,1.2-.029S57.814,50.839,58.217,50.858Zm-2.992,4.047a1.785,1.785,0,1,1,1.785,1.786A1.785,1.785,0,0,1,55.225,54.905Z" transform="translate(-47 -46)" fill="url(#linear-gradient)"/>
</svg>
