<svg xmlns="http://www.w3.org/2000/svg" xmlns:xlink="http://www.w3.org/1999/xlink" width="20.001" height="20" viewBox="0 0 20.001 20">
  <defs>
    <linearGradient id="linear-gradient" x1="0.5" x2="0.5" y2="1" gradientUnits="objectBoundingBox">
      <stop offset="0" stop-color="#2f1484"/>
      <stop offset="0.494" stop-color="#321257"/>
      <stop offset="1" stop-color="#02112e"/>
    </linearGradient>
  </defs>
  <path id="sass-logo" d="M48,55A10,10,0,1,1,58,65,10,10,0,0,1,48,55Zm10.086-7.09a14.01,14.01,0,0,0-4.743,2.723c-1.536,1.434-1.78,2.684-1.68,3.206.355,1.843,2.881,3.048,3.92,3.942v.005c-.307.149-2.548,1.274-3.072,2.438-.563,1.225.087,2.1.513,2.211a3.161,3.161,0,0,0,3.388-1.373A3.46,3.46,0,0,0,56.749,58a3.892,3.892,0,0,1,1.525-.086c1.75.2,2.1,1.3,2.024,1.75a1.2,1.2,0,0,1-.562.787c-.126.076-.163.1-.15.15.013.075.076.075.175.063a1.384,1.384,0,0,0,.951-1.227c.037-1.074-.988-2.273-2.813-2.25a4.512,4.512,0,0,0-1.563.214.291.291,0,0,0-.087-.088c-1.125-1.213-3.213-2.063-3.126-3.675.025-.589.238-2.138,4-4.012,3.088-1.538,5.551-1.112,5.977-.176.61,1.337-1.314,3.825-4.526,4.188a2.412,2.412,0,0,1-2.026-.513c-.174-.188-.2-.2-.261-.161-.1.05-.038.212,0,.313a1.924,1.924,0,0,0,1.163.912,6.143,6.143,0,0,0,3.75-.375c1.937-.749,3.449-2.838,3.012-4.588l.059.057c-.3-1.2-1.736-1.852-3.489-1.852A8.139,8.139,0,0,0,58.086,47.91ZM53.669,61.467c-.374-.22-.188-1.112.487-1.825a6.823,6.823,0,0,1,1.767-1.258v0l.091-.05a2.545,2.545,0,0,1-.022,1.493l-.054.15a2.788,2.788,0,0,1-.527.821,2.158,2.158,0,0,1-1.436.741A.615.615,0,0,1,53.669,61.467Z" transform="translate(-48 -45)" fill="url(#linear-gradient)"/>
</svg>
