<svg xmlns="http://www.w3.org/2000/svg" xmlns:xlink="http://www.w3.org/1999/xlink" width="20.001" height="12.024" viewBox="0 0 20.001 12.024">
  <defs>
    <linearGradient id="linear-gradient" x1="0.5" x2="0.5" y2="1" gradientUnits="objectBoundingBox">
      <stop offset="0" stop-color="#2f1484"/>
      <stop offset="0.494" stop-color="#541672"/>
      <stop offset="1" stop-color="#490551"/>
    </linearGradient>
  </defs>
  <path id="tailwind-logo" d="M58,60.012a5.772,5.772,0,0,1-4.59-2.17A4.218,4.218,0,0,0,51.5,56.5a3.2,3.2,0,0,0-3.5,1.51,4.722,4.722,0,0,1,5-4,5.8,5.8,0,0,1,4.59,2.14A4.314,4.314,0,0,0,59.5,57.5,3.23,3.23,0,0,0,63,56.012a4.72,4.72,0,0,1-4.663,4.012Q58.169,60.024,58,60.012Zm5-6a5.769,5.769,0,0,1-4.59-2.139,4.314,4.314,0,0,0-1.91-1.35,3.229,3.229,0,0,0-3.5,1.49,4.719,4.719,0,0,1,5-4,5.767,5.767,0,0,1,4.59,2.17,4.221,4.221,0,0,0,1.911,1.34,3.2,3.2,0,0,0,3.5-1.51,4.721,4.721,0,0,1-4.663,4.012Q63.17,54.024,63,54.012Z" transform="translate(-48 -48)" fill="url(#linear-gradient)"/>
</svg>
