<svg xmlns="http://www.w3.org/2000/svg" xmlns:xlink="http://www.w3.org/1999/xlink" width="20" height="12.023" viewBox="0 0 20 12.023">
  <defs>
    <linearGradient id="linear-gradient" x1="0.5" x2="0.5" y2="1" gradientUnits="objectBoundingBox">
      <stop offset="0" stop-color="#2f1484"/>
      <stop offset="0.494" stop-color="#321257"/>
      <stop offset="1" stop-color="#02112e"/>
    </linearGradient>
  </defs>
  <path id="tailwind-logo" d="M57.5,60.5a5.768,5.768,0,0,1-4.59-2.17A4.223,4.223,0,0,0,51,56.99a3.2,3.2,0,0,0-3.5,1.51,4.719,4.719,0,0,1,5-4,5.8,5.8,0,0,1,4.59,2.139A4.316,4.316,0,0,0,59,57.99,3.229,3.229,0,0,0,62.5,56.5a4.719,4.719,0,0,1-4.662,4.012Q57.67,60.512,57.5,60.5Zm5-6a5.773,5.773,0,0,1-4.59-2.14A4.314,4.314,0,0,0,56,51.01a3.231,3.231,0,0,0-3.5,1.49,4.721,4.721,0,0,1,5-4,5.768,5.768,0,0,1,4.59,2.17A4.218,4.218,0,0,0,64,52.01a3.2,3.2,0,0,0,3.5-1.51,4.721,4.721,0,0,1-4.663,4.012Q62.669,54.512,62.5,54.5Z" transform="translate(-47.5 -48.488)" fill="url(#linear-gradient)"/>
</svg>
