<svg xmlns="http://www.w3.org/2000/svg" xmlns:xlink="http://www.w3.org/1999/xlink" width="19.653" height="15.962" viewBox="0 0 19.653 15.962">
  <defs>
    <linearGradient id="linear-gradient" x1="0.5" x2="0.5" y2="1" gradientUnits="objectBoundingBox">
      <stop offset="0" stop-color="#2f1484"/>
      <stop offset="0.494" stop-color="#321257"/>
      <stop offset="1" stop-color="#02112e"/>
    </linearGradient>
  </defs>
  <path id="twitter-logo" d="M48,61.153a8.444,8.444,0,0,0,.973.049,8.066,8.066,0,0,0,5-1.721,4.034,4.034,0,0,1-3.766-2.793,5.13,5.13,0,0,0,.761.062,4.271,4.271,0,0,0,1.061-.138,4.026,4.026,0,0,1-3.23-3.953v-.049a4.059,4.059,0,0,0,1.82.51,4.033,4.033,0,0,1-1.247-5.386,11.455,11.455,0,0,0,8.306,4.215,4.568,4.568,0,0,1-.1-.923,4.032,4.032,0,0,1,6.971-2.756A7.955,7.955,0,0,0,67.1,47.3a4.018,4.018,0,0,1-1.771,2.22,8.1,8.1,0,0,0,2.319-.624,8.664,8.664,0,0,1-2.019,2.083c.013.175.013.349.013.523A11.465,11.465,0,0,1,48,61.153Z" transform="translate(-48 -47)" fill="url(#linear-gradient)"/>
</svg>
