<svg xmlns="http://www.w3.org/2000/svg" xmlns:xlink="http://www.w3.org/1999/xlink" width="19.651" height="15.961" viewBox="0 0 19.651 15.961">
  <defs>
    <linearGradient id="linear-gradient" x1="0.5" x2="0.5" y2="1" gradientUnits="objectBoundingBox">
      <stop offset="0" stop-color="#2f1484"/>
      <stop offset="0.494" stop-color="#541672"/>
      <stop offset="1" stop-color="#490551"/>
    </linearGradient>
  </defs>
  <path id="twitter-logo" d="M47.674,60.672a8.442,8.442,0,0,0,.973.05,8.073,8.073,0,0,0,5-1.721,4.036,4.036,0,0,1-3.767-2.794,5.153,5.153,0,0,0,.761.062,4.276,4.276,0,0,0,1.061-.137,4.027,4.027,0,0,1-3.23-3.953v-.05a4.068,4.068,0,0,0,1.82.511,4.033,4.033,0,0,1-1.248-5.386,11.462,11.462,0,0,0,8.306,4.215,4.569,4.569,0,0,1-.1-.923,4.032,4.032,0,0,1,6.971-2.756,7.953,7.953,0,0,0,2.556-.973,4.025,4.025,0,0,1-1.771,2.22,8.066,8.066,0,0,0,2.318-.625A8.635,8.635,0,0,1,65.307,50.5c.013.175.013.349.013.523a11.465,11.465,0,0,1-17.646,9.652Z" transform="translate(-47.674 -46.519)" fill="url(#linear-gradient)"/>
</svg>
